<?xml version="1.0" encoding="UTF-8" standalone="no"?>
<!DOCTYPE svg PUBLIC "-//W3C//DTD SVG 1.1//EN" "http://www.w3.org/Graphics/SVG/1.1/DTD/svg11.dtd">
<svg width="100%" height="100%" viewBox="0 0 120 84" version="1.1" xmlns="http://www.w3.org/2000/svg" xmlns:xlink="http://www.w3.org/1999/xlink" xml:space="preserve" xmlns:serif="http://www.serif.com/" style="fill-rule:evenodd;clip-rule:evenodd;stroke-linejoin:round;stroke-miterlimit:2;">
    <g transform="matrix(0.0578933,0,0,0.0578933,59.625,42.1242)">
        <g id="adidas-seeklogo.com.eps" transform="matrix(1,0,0,1,-741.667,-493.75)">
            <g transform="matrix(4.16667,0,0,4.16667,0,0)">
                <path d="M353.967,192.627L338.446,192.627C337.963,190.053 337.215,188.24 336.194,187.221C334.534,185.561 331.702,184.705 327.79,184.705C323.936,184.705 321.262,185.344 319.766,186.631C318.639,187.596 318.049,188.932 318.049,190.592C318.049,192.943 321.319,194.82 327.79,196.266C335.18,197.869 340.481,199.262 343.743,200.385C344.6,200.707 345.348,200.975 345.885,201.24C352.473,204.346 355.735,209.062 355.735,215.375C355.735,223.082 352.524,228.703 346.153,232.234C345.348,232.666 344.6,233.039 343.743,233.414C339.624,235.182 334.807,236.088 329.401,236.088C321.319,236.088 314.786,234.643 309.809,231.805C306.678,229.984 304.338,227.697 302.78,224.939C301.221,222.182 300.442,218.963 300.442,215.268L316.711,215.268C316.711,218.051 317.731,220.248 319.71,221.744C321.694,223.299 325.065,224.103 329.825,224.103C333.413,224.103 336.086,223.35 337.856,221.853C339.25,220.674 339.889,219.387 339.889,217.891C339.889,215.375 336.684,213.398 330.307,212.004C320.782,209.969 314.786,208.309 312.325,207.129C305.797,204.08 302.585,199.373 302.585,192.836C302.585,187.596 304.245,183.152 307.668,179.514C311.952,174.963 318.372,172.713 326.885,172.713C333.895,172.713 339.516,173.732 343.745,175.711C344.118,175.869 344.442,176.033 344.764,176.25C347.813,177.904 350.114,180.103 351.655,182.836C353.194,185.561 353.967,188.83 353.967,192.627Z" style="fill:rgb(3,4,4);fill-rule:nonzero;"/>
                <path d="M346.957,153.121C347.28,153.553 347.438,154.033 347.438,154.566C347.438,155.314 347.172,155.961 346.633,156.492C346.1,157.031 345.405,157.355 344.549,157.404C344.922,157.562 345.188,157.728 345.405,157.937L346.901,159.922L348.079,161.898L346.151,161.898L345.239,160.295C344.657,159.281 344.174,158.527 343.743,158.154C343.692,158.103 343.635,158.045 343.528,157.994L342.249,157.621L341.284,157.621L341.284,161.898L339.674,161.898L339.674,151.84L343.153,151.84C343.37,151.84 343.585,151.891 343.743,151.891C344.598,151.891 345.239,152 345.67,152.158C346.204,152.322 346.633,152.639 346.957,153.121ZM345.67,154.73C345.67,154.408 345.62,154.141 345.456,153.926C345.297,153.66 345.081,153.494 344.764,153.394C344.549,153.336 344.225,153.285 343.743,153.228L341.284,153.228L341.284,156.227L343.743,156.227C344.442,156.176 344.922,156.068 345.188,155.801C345.512,155.529 345.67,155.154 345.67,154.73Z" style="fill:rgb(3,4,4);fill-rule:nonzero;"/>
                <path d="M353.061,156.766C353.061,158.318 352.68,159.871 351.825,161.367C351.026,162.863 349.897,163.992 348.403,164.789C346.901,165.652 345.405,166.025 343.793,166.025L343.743,166.025C342.139,166.025 340.639,165.652 339.143,164.789C337.639,163.99 336.518,162.863 335.713,161.367C334.858,159.871 334.485,158.318 334.485,156.766C334.485,155.103 334.858,153.553 335.713,152.051C336.569,150.555 337.698,149.434 339.194,148.627C340.696,147.822 342.19,147.449 343.743,147.398L343.793,147.398C345.348,147.398 346.85,147.824 348.344,148.627C349.848,149.434 351.026,150.555 351.825,152.051C352.68,153.553 353.061,155.103 353.061,156.766ZM351.508,156.766C351.508,155.371 351.184,154.09 350.489,152.855C349.79,151.625 348.829,150.662 347.598,149.965C346.368,149.324 345.081,148.949 343.793,148.949L343.743,148.949C342.457,148.949 341.176,149.324 339.948,149.965C338.711,150.662 337.749,151.625 337.051,152.855C336.36,154.09 335.985,155.371 335.985,156.766C335.985,158.103 336.36,159.383 337.051,160.619C337.698,161.793 338.661,162.762 339.889,163.451C341.12,164.15 342.407,164.473 343.743,164.473L343.793,164.473C345.137,164.473 346.418,164.148 347.655,163.451C348.883,162.762 349.848,161.793 350.489,160.619C351.184,159.383 351.508,158.103 351.508,156.766Z" style="fill:rgb(3,4,4);fill-rule:nonzero;"/>
                <path d="M262.006,81.133L305.956,154.357L235.355,154.357L193.39,84.397L161.598,31.46L193.39,12.35L213.406,0.308L262.006,81.133Z" style="fill:rgb(3,4,4);fill-rule:nonzero;"/>
                <path d="M279.297,208.523L279.297,201.887C277.745,193.857 270.628,187.752 262.17,187.752L262.006,187.752C252.428,187.811 244.665,195.625 244.665,205.201C244.665,214.785 252.428,222.6 262.006,222.707L262.17,222.707C270.628,222.707 277.745,216.553 279.297,208.523ZM293.913,175.014L293.913,235.232L279.297,235.232L279.297,231.912C274.372,235.125 268.483,237 262.17,237L262.006,237C244.557,236.893 230.372,222.65 230.372,205.201C230.372,187.754 244.557,173.518 262.006,173.41L262.17,173.41C268.483,173.41 274.372,175.287 279.297,178.492L279.297,175.014L293.913,175.014Z" style="fill:rgb(3,4,4);fill-rule:nonzero;"/>
                <path d="M210.68,208.523L210.68,201.887C209.127,193.857 202.003,187.752 193.548,187.752L193.39,187.752C183.807,187.811 176.048,195.625 176.048,205.201C176.048,214.785 183.807,222.6 193.39,222.707L193.548,222.707C202.003,222.707 209.127,216.553 210.68,208.523ZM225.29,154.357L225.29,235.232L210.68,235.232L210.68,231.912C205.699,235.125 199.867,237 193.548,237L193.39,237C175.941,236.893 161.756,222.65 161.756,205.201C161.756,187.754 175.941,173.518 193.39,173.41L193.548,173.41C199.868,173.41 205.699,175.287 210.68,178.492L210.68,154.357L225.29,154.357Z" style="fill:rgb(3,4,4);fill-rule:nonzero;"/>
                <path d="M193.39,125.555L210.624,154.357L140.073,154.357L100.897,89.163L99.186,86.323L100.897,85.309L151.051,55.114L193.39,125.555Z" style="fill:rgb(3,4,4);fill-rule:nonzero;"/>
                <rect x="140.13" y="173.408" width="15.896" height="61.824" style="fill:rgb(3,4,4);fill-rule:nonzero;"/>
                <rect x="140.13" y="154.674" width="15.896" height="13.969" style="fill:rgb(3,4,4);fill-rule:nonzero;"/>
                <path d="M118.238,208.523L118.238,201.887C116.686,193.857 109.568,187.752 101.056,187.752L100.897,187.752C91.314,187.811 83.556,195.625 83.556,205.201C83.556,214.785 91.314,222.6 100.897,222.707L101.056,222.707C109.568,222.707 116.686,216.553 118.238,208.523ZM132.848,154.357L132.848,235.232L118.238,235.232L118.238,231.912C113.263,235.125 107.375,237 101.056,237L100.897,237C83.448,236.893 69.263,222.65 69.263,205.201C69.263,187.754 83.448,173.518 100.897,173.41L101.056,173.41C107.375,173.41 113.263,175.287 118.238,178.492L118.238,154.357L132.848,154.357Z" style="fill:rgb(3,4,4);fill-rule:nonzero;"/>
                <path d="M100.897,130.266L115.348,154.357L44.747,154.357L36.824,141.135L88.69,109.983L100.897,130.266Z" style="fill:rgb(3,4,4);fill-rule:nonzero;"/>
                <path d="M48.924,208.523L48.924,201.887C47.371,193.857 40.253,187.752 31.741,187.752L31.576,187.752C22.05,187.811 14.292,195.625 14.292,205.201C14.292,214.785 22.05,222.6 31.576,222.707L31.741,222.707C40.253,222.707 47.371,216.553 48.924,208.523ZM63.533,175.014L63.533,235.232L48.924,235.232L48.924,231.912C43.942,235.125 38.054,237 31.741,237L31.576,237C14.184,236.893 0,222.65 0,205.201C0,187.754 14.184,173.518 31.576,173.41L31.741,173.41C38.054,173.41 43.942,175.287 48.924,178.492L48.924,175.014L63.533,175.014Z" style="fill:rgb(3,4,4);fill-rule:nonzero;"/>
            </g>
        </g>
        <g id="adidas-seeklogo.com.eps1" serif:id="adidas-seeklogo.com.eps">
        </g>
    </g>
</svg>
