<?xml version="1.0" encoding="UTF-8" standalone="no"?>
<!DOCTYPE svg PUBLIC "-//W3C//DTD SVG 1.1//EN" "http://www.w3.org/Graphics/SVG/1.1/DTD/svg11.dtd">
<svg width="100%" height="100%" viewBox="0 0 120 84" version="1.1" xmlns="http://www.w3.org/2000/svg" xmlns:xlink="http://www.w3.org/1999/xlink" xml:space="preserve" xmlns:serif="http://www.serif.com/" style="fill-rule:evenodd;clip-rule:evenodd;stroke-linejoin:round;stroke-miterlimit:2;">
    <g transform="matrix(0.121406,0,0,0.121406,10.8717,36.9009)">
        <g transform="matrix(4.16667,0,0,4.16667,0,-360.593)">
            <path d="M130.423,44.559C136.475,41.533 139.579,41.998 139.657,45.024C139.734,48.981 139.113,54.257 138.725,58.059C136.398,78.699 132.673,95.536 132.363,116.797C142.372,90.88 150.675,73.035 161.46,50.921C164.874,43.861 167.125,45.179 169.918,43.861C180.858,38.972 181.246,41.998 179.772,48.05C174.495,70.009 160.994,139.453 158.9,150.084C158.279,153.188 154.866,151.946 154.089,150.705C150.055,145.35 145.709,145.272 146.174,141.627C148.657,123.935 157.503,79.165 159.753,68.612C148.037,92.51 135.932,122.538 129.725,139.453C128.405,143.023 126.001,142.79 124.527,140.151C122.353,136.349 118.318,134.488 117.698,130.143C115.525,116.254 120.103,89.717 120.725,72.88C114.44,91.191 103.731,126.884 99.075,142.945C97.136,149.618 90.697,148.455 92.403,142.092C99.541,115.012 114.827,67.293 121.422,50.145C122.975,46.033 127.086,46.266 130.423,44.559Z" style="fill:rgb(233,28,44);"/>
        </g>
        <g transform="matrix(4.16667,0,0,4.16667,0,-360.593)">
            <path d="M91.782,41.222C89.687,40.757 83.634,44.015 79.91,44.559C78.747,44.87 77.661,46.033 77.273,46.963C71.375,60.541 66.099,73.424 61.599,85.061C55.702,86.147 48.874,87.467 41.27,89.096C46.779,75.13 52.289,61.241 57.641,47.972C60.28,41.3 53.297,40.679 50.58,47.352C47.089,55.965 40.493,72.18 33.2,91.036C27.846,92.356 22.026,93.83 16.13,95.614C11.785,96.778 11.629,97.941 13.492,100.58C14.578,101.977 16.596,101.821 17.604,102.908C20.165,105.545 21.717,108.728 26.294,109.192C22.104,120.055 18.07,131.151 14.5,141.782C12.172,148.531 18.767,149.929 21.251,142.79C25.285,131.384 29.552,119.823 33.976,108.106C37.623,107.33 46.391,105.469 54.538,103.606C48.098,121.451 43.908,134.875 42.2,141.471C41.891,142.712 42.511,143.334 42.743,143.954C44.839,147.057 47.011,147.212 49.804,151.17C50.504,152.257 53.063,152.799 53.995,150.162C59.97,132.005 66.021,115.09 71.763,99.882C74.169,99.26 78.514,98.252 81.151,94.373C85.808,87.389 87.127,88.786 88.369,86.691C89.765,83.975 88.756,81.569 83.79,82.113C83.79,82.113 81.928,82.269 78.358,82.656C83.945,68.456 88.912,56.43 92.326,47.196C93.488,44.015 93.645,41.687 91.782,41.222Z" style="fill:rgb(233,28,44);"/>
        </g>
        <g transform="matrix(4.16667,0,0,4.16667,0,-360.593)">
            <path d="M86.324,129.398C87.131,128.373 87.864,127.316 88.524,126.341C91.464,121.991 88.601,119.434 85.575,121.995C85.143,122.393 84.694,122.825 84.248,123.276C83.758,121.739 83.236,120.101 82.771,118.615C84.158,116.915 85.508,115.17 86.66,113.382C91.523,105.84 82.006,101.511 77.893,106.4C75.721,108.96 76.264,111.521 76.884,113.771C77.064,114.447 77.345,115.412 77.691,116.585C76.528,117.803 75.141,119.298 73.315,121.451C68.582,126.884 69.898,133.879 74.867,135.419C77.863,136.347 80.689,134.994 83.139,132.833C83.256,133.141 83.37,133.434 83.48,133.712C84.799,136.971 88.912,135.962 87.282,132.005C87.02,131.339 86.693,130.445 86.324,129.398ZM79.589,122.561C79.991,123.828 80.424,125.158 80.856,126.433C80.315,126.884 79.765,127.34 79.212,127.66C77.288,128.773 75.875,127.582 78.358,124.245C78.764,123.67 79.18,123.111 79.589,122.561ZM81.141,113.06C80.998,112.698 80.916,112.345 80.841,112.064C79.449,106.864 85.409,108.253 82.393,111.676C81.966,112.16 81.577,112.64 81.141,113.06Z" style="fill:rgb(233,28,44);"/>
        </g>
    </g>
</svg>
